<svg xmlns="http://www.w3.org/2000/svg" xmlns:xlink="http://www.w3.org/1999/xlink" viewBox="0 0 501.17 501.17"><defs><clipPath id="clip-path"><ellipse cx="175.23" cy="250.13" rx="35.98" ry="41.89" fill="none"/></clipPath><clipPath id="clip-path-2"><ellipse cx="324.2" cy="250.13" rx="35.98" ry="41.89" fill="none"/></clipPath></defs><title>Peggy-Headshot</title><g style="isolation:isolate"><g id="Layer_1" data-name="Layer 1"><rect width="501.17" height="501.17" fill="#aef0ff"/><path d="M162.48,364c76.88,51.65,36.7,253.46,201,252.08s76.83-95.1,76.83-95.1-19,46.67-68.7,13.58-70-145-41.09-164.4S162.48,364,162.48,364Z" fill="#ff8976"/><path d="M322.61,456c1,3.65,2.09,6.16,3.39,7.69-12.44-40-12.21-82.32,4.56-93.57,14.85-10-29.76-11.31-76.73-10.28l-10.42,5.86-3,29.83S309.15,404.51,322.61,456Z" fill="#f48877" opacity="0.5" style="mix-blend-mode:multiply"/><circle cx="250.55" cy="256.91" r="138.62" fill="#ff8976"/><g clip-path="url(#clip-path)"><ellipse cx="175.23" cy="250.13" rx="35.98" ry="41.89" fill="#fff"/><ellipse cx="185.37" cy="249.14" rx="33.01" ry="38.43" fill="#262626"/></g><g clip-path="url(#clip-path-2)"><ellipse cx="324.2" cy="250.13" rx="35.98" ry="41.89" fill="#fff"/><ellipse cx="314.06" cy="249.14" rx="33.01" ry="38.43" fill="#262626"/></g><polygon points="140.53 284.94 360.28 284.94 322.23 316.02 167.92 319.21 140.53 284.94" fill="#ff8976"/><path d="M196.34,273.7s22.33-24.92,55-24.92,53.24,24.92,53.24,24.92-12,56.42-54.1,56.42S196.34,273.7,196.34,273.7Z" fill="#fbc499"/><path d="M196.34,273.7s22.33-24.92,55-24.92,53.24,24.92,53.24,24.92-12,29.7-54.1,29.7S196.34,273.7,196.34,273.7Z" fill="#fde4d3"/><polygon points="144.1 233.87 166.28 247.74 142.51 260.02 144.1 233.87" fill="#fff"/><polygon points="355.33 233.87 333.14 247.74 356.91 260.02 355.33 233.87" fill="#fff"/><path d="M211.1,123.82s45-23,59.69-23,10.47,23,10.47,23Z" fill="#ff8976"/><path d="M352.36,114.64a9.43,9.43,0,0,1,4.15-15.89c6.47-1.61,16.12-.71,30.08,7.46,19,11.11,19.31,27.06,16.3,38.36-1.83,6.89-10.56,9.1-15.66,4.12Z" fill="#262626"/><path d="M154.39,114.64a9.43,9.43,0,0,0-4.15-15.89c-6.47-1.61-16.12-.71-30.08,7.46-19,11.11-19.31,27.06-16.3,38.36,1.83,6.89,10.56,9.1,15.66,4.12Z" fill="#262626"/></g></g></svg>