<svg xmlns="http://www.w3.org/2000/svg" xmlns:xlink="http://www.w3.org/1999/xlink" viewBox="0 0 612 1008"><defs><radialGradient id="radial-gradient" cx="568.61" cy="982.01" fx="652.7899585916608" fy="1028.3237911717695" r="162.06" gradientUnits="userSpaceOnUse"><stop offset="0" stop-color="#fff"/><stop offset="1" stop-color="#fff" stop-opacity="0"/></radialGradient><clipPath id="clip-path"><circle cx="269.69" cy="552.91" r="16.08" transform="translate(-308.82 343.71) rotate(-44.12)" fill="none"/></clipPath><clipPath id="clip-path-2"><ellipse cx="268.89" cy="551.81" rx="6.47" ry="5.55" transform="translate(-279.03 275.08) rotate(-37.22)" fill="none"/></clipPath><clipPath id="clip-path-3"><circle cx="103.24" cy="923.27" r="6.01" fill="none"/></clipPath><clipPath id="clip-path-4"><circle cx="90.27" cy="940.44" r="6.01" fill="none"/></clipPath></defs><title>Space</title><g style="isolation:isolate"><g id="Layer_1" data-name="Layer 1" style="mix-blend-mode:multiply"><rect y="2.42" width="616.17" height="506.43" fill="#e7f6fc"/><rect x="-2.81" y="518.83" width="623.03" height="491.59" fill="#272626"/><path d="M307.34,804c12.55,20.36,51.67,30.83,58.17,24.74,6.82-6.39.76-19.66,0-45.09-.88-28.75-35.55-26.64-39.48-11.49S292.71,780.25,307.34,804Z" fill="#f58978" opacity="0.46"/><path d="M381.94,905.41c4.07-16.88,28.91-16.95,28.08-1.83S378.61,919.23,381.94,905.41Z" fill="none" stroke="#fff" stroke-miterlimit="10" stroke-width="2" opacity="0.29"/><path d="M364.19,775.65c-13.62-10.4-26.57,4.79-37,7.09-7.54,1.67-16.83,9.93-23.26,14.28-4.91-15.46,18.56-11.45,22-24.88S357.73,755.46,364.19,775.65Z" fill="#f58978" opacity="0.46" style="mix-blend-mode:multiply"/><circle cx="569.25" cy="703.61" r="23.34" fill="none" stroke="#f58978" stroke-miterlimit="10" stroke-width="2.35" opacity="0.39"/><circle cx="173.13" cy="913.11" r="19.33" fill="none" stroke="#f58978" stroke-miterlimit="10" stroke-width="1.94" opacity="0.39"/><circle cx="163.56" cy="781.67" r="23.61" fill="none" stroke="#92d7eb" stroke-miterlimit="10" stroke-width="2.38" opacity="0.39"/><path d="M584.39,545.43s-69.94,31.74-77.77,98.11-54,67.33-49.69,100,74.56,24.17,127.46-35,162.56,5.23,162.56,5.23Z" fill="none" stroke="#fff" stroke-miterlimit="10" stroke-width="5"/><path d="M38.27,1008.47c8.08-1.76,45,21.92,122.14-26.21,64.26-40.1,63.28-112.17,114.86-122.61,51-10.31,10.8,107.43,88.58,95.11,122-19.33,100.26,136,99.08,170.74-2.35,69.53-51.25,36.15-55.17,71.94s-54.33,84.25-79.06,66c-23.85-17.55,3.42-75.42-26.51-87s-52.48,73.11-101,57.94-63.4-52.83-87.15-42.25l-.71.33a74.48,74.48,0,0,1-94.53-27.28l-27.89-43.58c-28-43.74-21.54-95.74,29.19-106.8Z" fill="none" stroke="#f58978" stroke-miterlimit="10" stroke-width="5"/><path d="M-6.89,628c0,75.55,15.71,197.51,78.8,181.16s110.3,41.8,102.67,83.54c-17.45,95.48,87.25,83,115.84,63.29,57.3-39.46,28.48-108.15,56.52-130.74S388.62,734.07,360,723c-27.64-10.62-61.68,43.53-87.58,24.57s33.29-83.61-5.65-116.33-87.36-4-97.6-56.35c-8.88-45.37,36.07-60,36.07-60H-48.74Z" fill="none" stroke="#91d7eb" stroke-miterlimit="10" stroke-width="4"/><circle cx="596.18" cy="1008.05" r="258.61" fill="url(#radial-gradient)"/><path d="M-23.92,579.22s68.37,11.62,71.14-8.15-18.52-32.9-7.47-43.58,2.43-15.07,2.43-15.07H-18.17Z" fill="#91d7eb"/><circle cx="39.75" cy="740.15" r="7.47" fill="#fff"/><circle cx="120.26" cy="563.61" r="7.47" fill="#fff"/><circle cx="388.22" cy="558.76" r="7.47" fill="#fff"/><circle cx="20.39" cy="715.04" r="4.44" fill="#fff" opacity="0.66"/><circle cx="548.66" cy="837.72" r="4.44" fill="#fff" opacity="0.66"/><circle cx="141.54" cy="581.98" r="4.44" fill="#fff" opacity="0.66"/><circle cx="306" cy="528.43" r="4.44" fill="#fff" opacity="0.66"/><circle cx="504" cy="610.16" r="4.44" fill="#fff" opacity="0.66"/><circle cx="359.96" cy="579.38" r="4.44" fill="#fff" opacity="0.66"/><circle cx="306" cy="982.02" r="4.44" fill="#fff" opacity="0.66"/><circle cx="406.52" cy="715.04" r="4.44" fill="#fff" opacity="0.66"/><circle cx="313.14" cy="853.93" r="4.44" fill="#fff" opacity="0.66"/><circle cx="45.57" cy="708.53" r="3.14" fill="#fff" opacity="0.53"/><circle cx="505.56" cy="884.34" r="3.14" fill="#fff" opacity="0.53"/><circle cx="263.93" cy="933.15" r="3.14" fill="#fff" opacity="0.53"/><circle cx="445.9" cy="914.71" r="3.14" fill="#fff" opacity="0.53"/><circle cx="47.22" cy="610.16" r="3.14" fill="#fff" opacity="0.53"/><circle cx="290.42" cy="620.29" r="3.14" fill="#fff" opacity="0.53"/><path d="M548.69,520.53c8.5,14-49.12,29.52-31.11,61s45.25,6.39,57.12,4c25.67-5.19,50.63,14.4,52.63-18.61s7.39-52,7.39-52Z" fill="#f58978"/><path d="M427,822.19c1.24-4.13,20.07-2.13,42,4.47s38.79,15.31,37.55,19.45" fill="none" stroke="#d8bdba" stroke-miterlimit="10" stroke-width="5.33"/><path d="M545.11,553.67c22.56-7.13,50.56-29.23,59.7-36.76l-56.12,3.63c8.5,14-49.12,29.52-31.11,61a40.77,40.77,0,0,0,6.16,8.36l.76-.41S517.75,562.31,545.11,553.67Z" fill="#f58978" opacity="0.5" style="mix-blend-mode:multiply"/><rect y="507.59" width="622.31" height="16.36" fill="#91d7eb"/><ellipse cx="259.01" cy="513.71" rx="13.36" ry="3.64" fill="#fff"/><path d="M246.37,514.88c1.79,1.43,6.77,2.46,12.64,2.46s10.85-1,12.64-2.46c-1.79-1.43-6.77-2.46-12.64-2.46S248.17,513.45,246.37,514.88Z" fill="#272626"/><path d="M302.15,440.77,328,468.07l-33-3v7.13l39.93,6.16a4.87,4.87,0,0,0,5.35-6.37l-16.75-49.47Z" fill="#f58978"/><path d="M306.07,444.92l11.33,12,.38-.11s9.3-9.54,18.94,4.71h0l-7.53-22.24-1.14-1.17Z" fill="#f58978" opacity="0.5" style="mix-blend-mode:multiply"/><path d="M277.53,344.66a8.59,8.59,0,0,0-14.15,3.53c-5.07,15.62-11.42,43.34-.54,61.72,15.87,26.79,53-1.88,39-31.12A120.84,120.84,0,0,0,277.53,344.66Z" fill="#91d7eb"/><path d="M277.53,344.66a8.59,8.59,0,0,0-14.15,3.53c-5.07,15.62-11.42,43.34-.54,61.72,15.87,26.79,53-1.88,39-31.12A120.84,120.84,0,0,0,277.53,344.66Z" fill="#91d7eb" opacity="0.51" style="mix-blend-mode:multiply"/><ellipse cx="304.91" cy="407.15" rx="54.5" ry="43.44" transform="translate(-84.73 80.15) rotate(-13.17)" fill="#91d7eb"/><path d="M321.39,367.1s18.44.34,19.9-15.8A1.48,1.48,0,0,1,343,350c2.14.32,5.58,2,5.09,9.34,0,0,3.81-2.74,3.22-12.06a1.48,1.48,0,0,1,2.1-1.47c2.71,1.3,6.6,4.55,4.69,12.21,0,0,2.48.27,4.65-5.16a1.48,1.48,0,0,1,2.7-.16c4.27,8.34,13.35,34.2-12.57,70.63-31.82,44.74-56.39-33.79-56.39-33.79Z" fill="#91d7eb"/><path d="M346.18,432.62l-8.83-10,.27,4.12a12.47,12.47,0,0,1-10.39,13.11c-42.6,7.12-53.11-18.83-53.11-18.83l-10.24,18c12.13,10.51,31.27,15,50.93,10.43a65.52,65.52,0,0,0,23.62-10.68h0l0,0q1.45-1.06,2.82-2.18Z" fill="#91d7eb" opacity="0.51" style="mix-blend-mode:multiply"/><path d="M329.27,417.18S326,398,345.14,398.33l24.45,53.54-12.08,63.86h-7.58L360.86,455Z" fill="#f58978"/><path d="M330.27,391.62A138.74,138.74,0,0,0,331.37,365a23.12,23.12,0,0,1-2.42.9,63.75,63.75,0,0,0-33.94-1,68.5,68.5,0,0,0-8.69,2.65c-6.2,8.87-10.79,18.78-11.31,29.06C273.28,431.15,325.34,427.36,330.27,391.62Z" fill="#91d7eb" opacity="0.51" style="mix-blend-mode:multiply"/><path d="M320.91,342.09a9.55,9.55,0,0,0-15.84-3.55c-12.83,13-33,37.41-31.3,61.1,2.42,34.56,53.65,24.55,54.26-11.52A134.42,134.42,0,0,0,320.91,342.09Z" fill="#91d7eb"/><path d="M328,383.57a133.63,133.63,0,0,0-7.12-41.48,9.55,9.55,0,0,0-15.84-3.55,162.28,162.28,0,0,0-14.75,17.11C290.38,355.64,320.37,350,328,383.57Z" fill="#a6deed"/><path d="M254.67,423.5s3.81-10.39,13.85-8,5.89,13.16,5.89,13.16L261.94,541.56l-8,8.66Z" fill="#f58978"/><g clip-path="url(#clip-path)"><circle cx="269.88" cy="553.49" r="16.48" transform="translate(-342.43 488.22) rotate(-57.92)" fill="#f58978"/><g clip-path="url(#clip-path-2)"><ellipse cx="268.89" cy="551.81" rx="6.47" ry="5.55" transform="translate(-279.03 275.08) rotate(-37.22)" fill="#fff"/><ellipse cx="268.98" cy="554.04" rx="5.93" ry="5.1" transform="translate(-280.36 275.58) rotate(-37.22)" fill="#272626"/><polyline points="267.85 548.78 267.38 551.53 264.47 548.79" fill="#fff"/></g><path d="M268.11,546s6.3,2.92,6.18,8.15,4-2.7,4-2.7l-2.52-5.75-3.64-3.81-3.56,2.41Z" fill="#f58978"/></g><path d="M279.14,555.48s11.77-2.43,13.38,1.09-7.76,7.47-9.06,7.48S279.14,555.48,279.14,555.48Z" fill="#fce4d3"/><path d="M280.94,563.47s8.25-1.92,9.41-4.84-11.5-.74-11.5-.74Z" fill="#fcc59a"/><path d="M274.12,563.58a9.76,9.76,0,0,1,5-8.1s14.69,20.75,12.71,22.59S275.16,565.44,274.12,563.58Z" fill="#fce4d3"/><path d="M248.4,564.44a1.09,1.09,0,0,1-1.08,1.53,4.41,4.41,0,0,1-2.8-2,3.67,3.67,0,0,1-.12-4.73,1,1,0,0,1,1.78.18Z" fill="#878787"/><path d="M259.45,574.72a.82.82,0,0,0-1.34.41,3.31,3.31,0,0,0,.77,2.46,2.76,2.76,0,0,0,3.35,1.18.77.77,0,0,0,.28-1.31Z" fill="#878787"/><path d="M265.47,564.28l-7.33-.18-6.35-6.27a1.63,1.63,0,0,1,.46-2.64l3-1.41Z" fill="#f58b78"/><path d="M254,544.41s-.72-16.2,9.34-16l1-8.8-10.23.48Z" fill="#f58978" opacity="0.5" style="mix-blend-mode:multiply"/><g opacity="0.5" style="mix-blend-mode:multiply"><path d="M331.94,403.88l-1.23,2a21.4,21.4,0,0,0-1.44,11.28L360.86,455S327.76,412.32,331.94,403.88Z" fill="#f58978"/><path d="M332.15,403.53a2.57,2.57,0,0,0-.21.35l.21-.35Z" fill="#f58978"/></g><polygon points="298.28 469.7 334.94 478.41 298.28 472.76 298.28 469.7" fill="#f58978" opacity="0.5" style="mix-blend-mode:multiply"/><path d="M295,465.12s-9.12,2.78-9.12,14a25.15,25.15,0,0,0,6.55,17.42s12.63-10.23,6.71-25.58Z" fill="#f58978"/><polygon points="353.9 493.65 356.03 506.84 352.12 502.24 353.9 493.65" fill="#f58978" opacity="0.5" style="mix-blend-mode:multiply"/><path d="M357.51,515.73H327.72s2.26-15.47,16.85-15.47S357.51,515.73,357.51,515.73Z" fill="#f58978"/><path d="M245.66,513.71c0,2,6,3.64,13.36,3.64s13.36-1.63,13.36-3.64v10.24H245.66Z" fill="#91d7eb"/><rect y="521.22" width="622.31" height="2.73" fill="#fff"/><circle cx="422.06" cy="802.5" r="6.65" fill="#fff"/><circle cx="505.56" cy="549.48" r="6.65" fill="#fff"/><circle cx="183.04" cy="734.07" r="6.65" fill="#fff"/><circle cx="362.06" cy="914.71" r="6.65" fill="#fff"/><circle cx="440.63" cy="788.63" r="5.27" fill="#91d7eb"/><circle cx="420.67" cy="663.01" r="5.27" fill="#91d7eb"/><circle cx="321.22" cy="699.28" r="11.69" fill="#91d7eb" opacity="0.68"/><circle cx="604.48" cy="846.11" r="11.69" fill="#91d7eb" opacity="0.68"/><circle cx="210.76" cy="584.65" r="5.27" fill="#91d7eb"/><circle cx="502.92" cy="730.05" r="2.64" fill="#91d7eb"/><circle cx="236.43" cy="788.63" r="2.64" fill="#91d7eb"/><circle cx="425.34" cy="781.67" r="3.28" fill="#91d7eb" opacity="0.51"/><circle cx="385.55" cy="982.02" r="3.28" fill="#91d7eb" opacity="0.51"/><circle cx="388.83" cy="875.93" r="3.28" fill="#91d7eb" opacity="0.51"/><circle cx="251.72" cy="661.02" r="3.28" fill="#91d7eb" opacity="0.51"/><circle cx="458.59" cy="968.15" r="3.28" fill="#91d7eb" opacity="0.51"/><circle cx="219.77" cy="653.96" r="3.28" fill="#91d7eb" opacity="0.51"/><path d="M-25.31,787.75c14.16,40.54,47.84-1.2,69.49.66s66.91,28.27,84.68-17.34c20.09-51.57-64.08-59.49-85.14-33.81S-41.82,740.5-25.31,787.75Z" fill="#91d7eb"/><path d="M63.88,863.9c14.69-9.25,32.54,8,21.4,18.28S51.85,871.48,63.88,863.9Z" fill="#fff"/><path d="M159.69,615.94c14.69-9.25,39.29,6.28,28.15,16.54S147.65,623.52,159.69,615.94Z" fill="none" stroke="#fff" stroke-miterlimit="10" stroke-width="2" opacity="0.29"/><path d="M600.27,784.5c14.69-9.25,39.29,6.28,28.15,16.54S588.24,792.08,600.27,784.5Z" fill="none" stroke="#fff" stroke-miterlimit="10" stroke-width="2" opacity="0.29"/><path d="M519.91,702.74c7.35-4.63,16.27,4,10.7,9.14S513.89,706.53,519.91,702.74Z" fill="#fff"/><path d="M43.93,632.43c5.18,16.57-16.08,29.4-23.14,16S39.68,618.86,43.93,632.43Z" fill="#f58978"/><path d="M0,852.87c.36-21.15,44.22-28.57,60.42-26.06s22.35,3.31,23.92,9.81S-.19,864.38,0,852.87Z" fill="#91d7eb"/><path d="M146.3,1047.52c-8.81-19.23,27.55-44.86,43.24-49.6s21.59-6.66,25.81-1.48S151.1,1058,146.3,1047.52Z" fill="#f58978"/><path d="M106.77,560.53c22.65,4.82,12.18,27.59,22,40.68s25.43,25.32,12,47.32-69,40.93-78.08,4.71,34.36-22.34,33.92-39.09-23.26,3-26.48-28.18S92.28,557.44,106.77,560.53Z" fill="#f58978"/><path d="M98.59,854.9c.3-7.77,8.43-5.6,12.2-9.59s6.93-9.86,15-6.67,17.48,20.5,6,25.56-7.41,10.58-12.92,11.68.39-13.15-9.75-10.3S98.4,859.87,98.59,854.9Z" fill="#f58978"/><path d="M6.74,988.19c7.76-.44,6.38,7.86,10.71,11.24s10.47,6,8.07,14.27S6.78,1033,.65,1022.11s-11.24-6.37-12.86-11.75,13.13-.87,9.33-10.69S1.77,988.47,6.74,988.19Z" fill="#f58978"/><path d="M494.22,919.13h0a5.09,5.09,0,0,0,8.49,1.37h0A5.09,5.09,0,0,0,498.9,912h0A5.09,5.09,0,0,0,494.22,919.13Z" fill="#fff" opacity="0.61"/><circle cx="564.61" cy="885.23" r="7.47" fill="#fff"/><circle cx="467.28" cy="832.69" r="18.05" transform="translate(-291.2 252.67) rotate(-23.29)" fill="#f58b78"/><path d="M457.23,847.67a18,18,0,0,1,25.37-24.53,18,18,0,1,0-25.37,24.53Z" fill="#f58978" opacity="0.5" style="mix-blend-mode:multiply"/><ellipse cx="588.44" cy="634.67" rx="6.6" ry="9.02" transform="translate(-134.06 1111.17) rotate(-80.57)" fill="#f58b78"/><ellipse cx="205.48" cy="817.98" rx="6.6" ry="9.02" transform="translate(-635.11 886.66) rotate(-80.57)" fill="#f58b78"/><path d="M580.38,637a4.9,4.9,0,0,1,.06-1c.6-3.59,5.07-5.85,10-5a10.16,10.16,0,0,1,7,4.22c-.12-3.24-3.42-6.25-7.88-7-4.92-.82-9.39,1.44-10,5A5.38,5.38,0,0,0,580.38,637Z" fill="#f58978" opacity="0.5" style="mix-blend-mode:multiply"/><path d="M506.55,846.11c-1.24,4.13-20.07,2.13-42-4.47S425.71,826.33,427,822.19" fill="none" stroke="#d8bdba" stroke-miterlimit="10" stroke-width="5.33"/><ellipse cx="551.95" cy="616.15" rx="9.02" ry="9.93" transform="translate(-148.84 176.63) rotate(-16.05)" fill="#f58b78"/><path d="M546.16,623.42a11,11,0,0,1-.51-1.4c-1.52-5.27,1.14-10.66,5.93-12a8.85,8.85,0,0,1,8.54,2.27c-1.95-4.41-6.56-6.89-10.91-5.64-4.79,1.38-7.44,6.77-5.93,12A10.61,10.61,0,0,0,546.16,623.42Z" fill="#f58978" opacity="0.5" style="mix-blend-mode:multiply"/><circle cx="555.6" cy="618.8" r="2.64" transform="translate(-187.77 991.65) rotate(-74.72)" fill="#f58978" opacity="0.5" style="mix-blend-mode:multiply"/><path d="M131.93,756.38c-24.41-23.14-67-.42-93.51.19-19.24.44-47.73,12-66.4,17.63.23-29.22,53-14.16,71.7-36.94C62.59,714.24,132.12,718.21,131.93,756.38Z" fill="#91d7eb" opacity="0.51" style="mix-blend-mode:multiply"/><path d="M60.42,826.81c-26.11.44-37.34,16.66-42.11,28.87C7.59,856.82-.06,856.31,0,852.87.36,831.73,44.22,824.3,60.42,826.81Z" fill="#91d7eb" opacity="0.51" style="mix-blend-mode:multiply"/><circle cx="596.18" cy="1008.05" r="90.1" fill="#fff" opacity="0.63"/><g opacity="0.5" style="mix-blend-mode:multiply"><path d="M90.94,621.92c-11.35,5.23-35.18,3.59-28.24,31.32,1.73,6.89,5.14,11.78,9.62,15C72.29,668.18,65.48,638.31,90.94,621.92Z" fill="#f58978"/><path d="M121.81,576.61l.34-.94c-1.62-7-5.06-12.94-15.37-15.14-14.5-3.09-39.87-5.76-36.64,25.45.68,6.54,2.21,10.83,4.22,13.7,0,0,2.19-23.94,21.65-27.56S121.81,576.61,121.81,576.61Z" fill="#f58978"/></g><circle cx="540.41" cy="990.27" r="14.6" fill="#272626" opacity="0.24"/><ellipse cx="592.59" cy="990.1" rx="8.63" ry="7.95" transform="translate(-442.9 1499.23) rotate(-85.28)" fill="#272626" opacity="0.24"/><ellipse cx="596.18" cy="946.96" rx="9.04" ry="7.16" transform="translate(-300.59 277.66) rotate(-21.07)" fill="#272626" opacity="0.24"/><polygon points="170.98 692.66 144.94 696.84 147.11 694.55 173.15 690.37 170.98 692.66" fill="#fff"/><polygon points="158.65 710.65 151.91 709.6 158.43 681.07 165.26 681.27 158.65 710.65" fill="#fff"/><ellipse cx="155.31" cy="709.98" rx="3.46" ry="3.06" transform="translate(-110.46 33.55) rotate(-9.11)" fill="#fff"/><ellipse cx="161.83" cy="681.07" rx="3.46" ry="3.06" transform="translate(-105.8 34.21) rotate(-9.11)" fill="#fff"/><polygon points="190.63 693.2 164.59 697.37 165.6 687.9 191.64 683.72 190.63 693.2" fill="#91d7eb"/><polygon points="151.73 699.43 125.69 703.61 126.71 694.13 152.75 689.96 151.73 699.43" fill="#91d7eb"/><polygon points="189.46 691.01 163.42 695.19 164.44 685.71 190.47 681.54 189.46 691.01" fill="#91d7eb" opacity="0.51" style="mix-blend-mode:multiply"/><polygon points="150.56 697.25 124.53 701.43 125.54 691.95 151.58 687.77 150.56 697.25" fill="#91d7eb" opacity="0.51" style="mix-blend-mode:multiply"/><circle cx="216.67" cy="686.4" r="5.27" transform="translate(-500.3 622.83) rotate(-67.41)" fill="#f58978"/><circle cx="216.03" cy="765.71" r="2.64" transform="translate(-573.92 671.08) rotate(-67.41)" fill="#f58978" opacity="0.59"/><circle cx="355.41" cy="875.93" r="2.64" transform="translate(-589.84 867.67) rotate(-67.41)" fill="#f58978" opacity="0.59"/><circle cx="267.07" cy="807.37" r="7.49" transform="translate(-580.95 743.87) rotate(-67.41)" fill="#f58978" opacity="0.82"/><circle cx="187.84" cy="559.03" r="2.64" transform="translate(-400.46 517.76) rotate(-67.41)" fill="#f58978" opacity="0.59"/><circle cx="265.47" cy="774.19" r="2.64" transform="translate(-551.3 721.96) rotate(-67.41)" fill="#f58978" opacity="0.59"/><circle cx="425.95" cy="875.93" r="2.64" transform="translate(-546.4 932.79) rotate(-67.41)" fill="#f58978" opacity="0.59"/><circle cx="161.22" cy="657.74" r="2.64" transform="translate(-508 553.98) rotate(-67.41)" fill="#f58978" opacity="0.59"/><circle cx="544.22" cy="805.28" r="2.64" transform="translate(-408.32 998.48) rotate(-67.41)" fill="#f58978" opacity="0.59"/><g opacity="0.51" style="mix-blend-mode:multiply"><path d="M41.18,547.45c-3.77-7.37-7-13.53-2.3-19-6.56,5.19-39.58,8.36-25.38,8.4,15,0,27.12,11.34,27.12,11.34Z" fill="#91d7eb"/><path d="M39.76,527.49c.35-.34.69-.68,1-1A2.18,2.18,0,0,0,39.76,527.49Z" fill="#91d7eb"/></g><path d="M18.25,917.84l34.47,1.44s.29,17.24-19.54,17.24S18.25,917.84,18.25,917.84Z" fill="#91d7eb"/><path d="M18.25,917.84l34.47,1.44s.29,17.24-19.54,17.24S18.25,917.84,18.25,917.84Z" fill="#91d7eb" opacity="0.51" style="mix-blend-mode:multiply"/><circle cx="103.24" cy="923.27" r="6.01" fill="#fff"/><g clip-path="url(#clip-path-3)"><circle cx="106.21" cy="919.91" r="6.01" fill="#272626"/></g><path d="M27.44,934.84s11.78,3.73,30.45-.57c15.21-3.51,43.38-11.78,53.31-14.73a3.56,3.56,0,0,1,4.52,2.76c1.75,9.46,2.53,34-32.55,44.73C39.22,980.52,27.44,934.84,27.44,934.84Z" fill="#91d7eb"/><path d="M78.24,926.24,82,923.38a1.11,1.11,0,0,0-.09-1.92c-1.6-1-4.44-2.26-7.37-1-3.22,1.42-.45,4.26,1.32,5.72A2,2,0,0,0,78.24,926.24Z" fill="#878787"/><path d="M92.23,914.57l3.63-1.44a1.16,1.16,0,0,0,.57-1.93,6.07,6.07,0,0,0-5.56-2c-3,.52-1.86,3.2-.89,4.79A1.9,1.9,0,0,0,92.23,914.57Z" fill="#878787"/><circle cx="90.27" cy="940.44" r="6.01" fill="#fff"/><path d="M79.1,958.51,64.81,960.7a3.27,3.27,0,0,0-1.23,6c4.67,2.89,10.82,5.73,15.2,4.07,5.23-2,4.85-6.82,4-9.91A3.28,3.28,0,0,0,79.1,958.51Z" fill="#91d7eb" opacity="0.51" style="mix-blend-mode:multiply"/><g clip-path="url(#clip-path-4)"><circle cx="93.24" cy="937.08" r="6.01" fill="#272626"/></g><path d="M45.35,962s-9.26-19.61,11.73-27.53c-18.11,4-29.49.36-29.49.36S32,951.77,45.35,962Z" fill="#91d7eb" opacity="0.51" style="mix-blend-mode:multiply"/><path d="M78.28,959.1l-12.42,7.4a3.27,3.27,0,0,0,1.12,6c5.41.93,12.18,1.24,15.61-1.94,4.1-3.8,1.93-8.14,0-10.67A3.28,3.28,0,0,0,78.28,959.1Z" fill="#f58b78"/><path d="M78.28,959.1l-12.42,7.4a3.27,3.27,0,0,0,1.12,6l.71.11.13-.17s-2.41-7.24,14.09-13l.13,0A3.26,3.26,0,0,0,78.28,959.1Z" fill="#f58978" opacity="0.5" style="mix-blend-mode:multiply"/><ellipse cx="71.91" cy="933.15" rx="2.82" ry="1.06" transform="translate(-189.12 34.37) rotate(-11.79)" fill="#91d7eb" opacity="0.51" style="mix-blend-mode:multiply"/><path d="M107.52,851.87c5.29-1,9.56-.2,13.84-5.7a62.62,62.62,0,0,1,6.15-6.65,10.9,10.9,0,0,0-1.74-.9c-8-3.18-11.2,2.68-15,6.67s-11.9,1.83-12.2,9.59a20.37,20.37,0,0,0,.58,6.37S102.24,852.89,107.52,851.87Z" fill="#f58978" opacity="0.5" style="mix-blend-mode:multiply"/><circle cx="359.96" cy="640.95" r="33.92" fill="#91d7eb"/><path d="M332.39,650.82a33.92,33.92,0,0,1,58.86-23A33.92,33.92,0,1,0,335,663.92,33.81,33.81,0,0,1,332.39,650.82Z" fill="#91d7eb" opacity="0.51" style="mix-blend-mode:multiply"/><circle cx="357.75" cy="654.72" r="6.08" transform="translate(-304.35 998.62) rotate(-88.79)" fill="#91d7eb" opacity="0.51" style="mix-blend-mode:multiply"/><circle cx="368.72" cy="633.6" r="4.67" transform="translate(-335.93 431.43) rotate(-43.79)" fill="#91d7eb" opacity="0.51" style="mix-blend-mode:multiply"/><circle cx="535.34" cy="764.47" r="6.24" fill="#91d7eb"/><path d="M583,774.36c0,3.45-44.22-3.65-47.67-3.65a6.24,6.24,0,0,1,0-12.48C538.79,758.23,583,770.91,583,774.36Z" fill="#91d7eb" opacity="0.51"/><path d="M400.82,576.72s38.44,7.11,56.1,33.44" fill="#91d7eb"/><path d="M207.47,893.84s1.36-44.52,41-50.82" fill="#fff" opacity="0.66"/><path d="M134,798.16S169.12,791,169.12,820" fill="#f58978"/><path d="M440.63,578.94s20.12,5.14,29.36,24.15" fill="#91d7eb" opacity="0.51"/><circle cx="255.01" cy="728.7" r="25.09" fill="#f58978"/><path d="M234.62,736a25.09,25.09,0,0,1,43.55-17,25.09,25.09,0,1,0-41.61,26.69A25,25,0,0,1,234.62,736Z" fill="#f58978" opacity="0.5" style="mix-blend-mode:multiply"/><circle cx="263.93" cy="738.39" r="4.5" transform="translate(-479.86 986.73) rotate(-88.79)" fill="#f58978" opacity="0.5" style="mix-blend-mode:multiply"/><circle cx="261.5" cy="723.27" r="3.45" transform="translate(-427.81 382.17) rotate(-43.79)" fill="#f58978" opacity="0.5" style="mix-blend-mode:multiply"/><circle cx="247.79" cy="736.64" r="2.19" transform="translate(-440.88 376.4) rotate(-43.79)" fill="#f58978" opacity="0.5" style="mix-blend-mode:multiply"/><path d="M462.92,1125.49c-2.35,69.53-51.25,36.15-55.17,71.94s-54.33,84.25-79.06,66c-23.85-17.55,3.42-75.42-26.51-87s-52.48,73.11-101,57.94-63.4-52.83-87.15-42.25l-.71.33a74.48,74.48,0,0,1-94.53-27.28l-27.89-43.58c-28-43.74-21.54-95.74,29.19-106.8l18.21-6.34c8.08-1.76,45,21.92,122.14-26.21,64.26-40.1,63.28-112.17,114.86-122.61" fill="none" stroke="#f58978" stroke-miterlimit="10" stroke-width="5"/></g></g></svg>