<svg xmlns="http://www.w3.org/2000/svg" xmlns:xlink="http://www.w3.org/1999/xlink" viewBox="0 0 1920 1080"><defs><clipPath id="clip-path"><circle cx="358.55" cy="980.47" r="9.34" fill="none"/></clipPath><clipPath id="clip-path-2"><circle cx="338.41" cy="1007.15" r="9.34" fill="none"/></clipPath><radialGradient id="radial-gradient" cx="1799.6" cy="987.3" fx="1918.2669260562623" fy="1052.581174026174" r="228.44" gradientUnits="userSpaceOnUse"><stop offset="0" stop-color="#fff"/><stop offset="1" stop-color="#fff" stop-opacity="0"/></radialGradient><clipPath id="clip-path-3"><circle cx="866.11" cy="562.9" r="22.67" transform="translate(-147.53 761.71) rotate(-44.12)" fill="none"/></clipPath><clipPath id="clip-path-4"><ellipse cx="864.99" cy="561.35" rx="9.12" ry="7.83" transform="translate(-163.36 637.62) rotate(-37.22)" fill="none"/></clipPath></defs><title>Space-Wide</title><g style="isolation:isolate"><g id="Layer_1" data-name="Layer 1" style="mix-blend-mode:multiply"><rect x="-16.13" y="516.27" width="1952.51" height="563.73" fill="#272626"/><path d="M1098.48,575.44c.5-29.81,62.34-40.27,85.17-36.74s31.51,4.67,33.72,13.83S1098.21,591.66,1098.48,575.44Z" fill="#91d7eb"/><path d="M1183.65,538.7c-36.8.63-52.64,23.48-59.36,40.69-15.1,1.62-25.89.89-25.81-4C1099,545.63,1160.82,535.16,1183.65,538.7Z" fill="#91d7eb" opacity="0.51" style="mix-blend-mode:multiply"/><path d="M695.41,550.06C695.15,621.26,609,596.57,576,611.2s-96.15,35.57-131.26-3.85c-61-68.52,68.22-127.91,115.12-99.05S695.71,467.08,695.41,550.06Z" fill="#f58978"/><path d="M432,586c25.73-49.47,104.72-36.9,146.64-50.31,30.39-9.72,81.32-7,113.6-8.31-16.18-45.67-90.77,6.51-132.36-19.08C517.87,482.44,411.06,526.29,432,586Z" fill="#f58978" opacity="0.5" style="mix-blend-mode:multiply"/><path d="M226.53,972l53.55,2.23s.45,26.77-30.34,26.77S226.53,972,226.53,972Z" fill="#91d7eb"/><path d="M226.53,972l53.55,2.23s.45,26.77-30.34,26.77S226.53,972,226.53,972Z" fill="#91d7eb" opacity="0.51" style="mix-blend-mode:multiply"/><circle cx="358.55" cy="980.47" r="9.34" fill="#fff"/><g clip-path="url(#clip-path)"><circle cx="363.16" cy="975.24" r="9.34" fill="#272626"/></g><path d="M240.81,998.44s18.3,5.8,47.3-.89c23.63-5.45,67.38-18.31,82.8-22.89a5.53,5.53,0,0,1,7,4.28c2.71,14.69,3.93,52.74-50.56,69.48C259.1,1069.39,240.81,998.44,240.81,998.44Z" fill="#91d7eb"/><path d="M319.71,985.08l5.89-4.44a1.72,1.72,0,0,0-.14-3c-2.49-1.57-6.9-3.51-11.45-1.51-5,2.2-.7,6.62,2,8.88A3.1,3.1,0,0,0,319.71,985.08Z" fill="#878787"/><path d="M341.44,967l5.63-2.24c1.43-.57,1.83-2,.88-3a9.43,9.43,0,0,0-8.64-3.14c-4.65.8-2.89,5-1.38,7.44A2.94,2.94,0,0,0,341.44,967Z" fill="#878787"/><circle cx="338.41" cy="1007.15" r="9.34" fill="#fff"/><path d="M321,1035.21l-22.2,3.4a5.08,5.08,0,0,0-1.91,9.33c7.25,4.5,16.81,8.9,23.61,6.33,8.12-3.07,7.53-10.59,6.17-15.39A5.09,5.09,0,0,0,321,1035.21Z" fill="#91d7eb" opacity="0.51" style="mix-blend-mode:multiply"/><g clip-path="url(#clip-path-2)"><circle cx="343.02" cy="1001.92" r="9.34" fill="#272626"/></g><path d="M268.62,1040.57s-14.39-30.46,18.22-42.77c-28.13,6.15-45.8.56-45.8.56s6.8,26.37,27.58,42.21Z" fill="#91d7eb" opacity="0.51" style="mix-blend-mode:multiply"/><path d="M319.77,1036.13l-19.29,11.5a5.08,5.08,0,0,0,1.74,9.36c8.41,1.44,18.92,1.92,24.25-3,6.37-5.9,3-12.64-.07-16.58A5.09,5.09,0,0,0,319.77,1036.13Z" fill="#f58b78"/><path d="M319.77,1036.13l-19.29,11.5a5.08,5.08,0,0,0,1.74,9.36l1.1.18.2-.27s-3.75-11.24,21.88-20.23l.2-.07A5.07,5.07,0,0,0,319.77,1036.13Z" fill="#f58978" opacity="0.5" style="mix-blend-mode:multiply"/><ellipse cx="309.88" cy="995.81" rx="4.37" ry="1.65" transform="translate(-196.91 84.31) rotate(-11.79)" fill="#91d7eb" opacity="0.51" style="mix-blend-mode:multiply"/><rect x="-16.13" width="1952.51" height="506.43" fill="#e7f6fc"/><path d="M1024.35,1059.79c5.74-23.79,40.75-23.89,39.58-2.58S1019.65,1079.28,1024.35,1059.79Z" fill="none" stroke="#fff" stroke-miterlimit="10" stroke-width="2.82" opacity="0.29"/><path d="M903.34,933.07c17.69,28.7,72.83,43.46,82,34.87,9.62-9,1.07-27.71,0-63.56-1.25-40.53-50.11-37.56-55.65-16.2S882.72,899.62,903.34,933.07Z" fill="#f58978" opacity="0.46"/><path d="M983.48,893.12c-19.2-14.66-37.46,6.75-52.12,10-10.63,2.36-23.72,14-32.78,20.13-6.93-21.79,26.16-16.14,31.08-35.08C934.63,869,974.37,864.67,983.48,893.12Z" fill="#f58978" opacity="0.46" style="mix-blend-mode:multiply"/><circle cx="1867.9" cy="775.33" r="32.9" fill="none" stroke="#f58978" stroke-miterlimit="10" stroke-width="3.31" opacity="0.39"/><circle cx="730" cy="1070.65" r="27.24" fill="none" stroke="#f58978" stroke-miterlimit="10" stroke-width="2.74" opacity="0.39"/><circle cx="716.5" cy="885.37" r="33.28" fill="none" stroke="#92d7eb" stroke-miterlimit="10" stroke-width="3.35" opacity="0.39"/><path d="M1889.24,552.36s-98.59,44.74-109.63,138.3-76.17,94.91-70,141,105.1,34.08,179.68-49.4,229.15,7.37,229.15,7.37Z" fill="none" stroke="#fff" stroke-miterlimit="10" stroke-width="7.05"/><path d="M-15.9,619.35A320.44,320.44,0,0,1,3.61,713.09c5.67,103.61,32.5,231.06,109.85,211C202.4,901,268.95,983,258.19,1041.87c-24.6,134.59,123,117,163.29,89.21,80.77-55.62,40.15-152.45,79.68-184.29s58.75-128.52,18.34-144.05c-39-15-86.94,61.36-123.46,34.63s46.93-117.86-8-164S264.92,667.71,250.49,594c-12.52-64,50.84-84.54,50.84-84.54H-56.61Z" fill="none" stroke="#91d7eb" stroke-miterlimit="10" stroke-width="5.64"/><circle cx="1838.47" cy="1024" r="364.54" fill="url(#radial-gradient)"/><path d="M-12.15,637.21s134.47,22.85,139.92-16-36.43-64.71-14.68-85.71,4.77-29.65,4.77-29.65H-.85Z" fill="#91d7eb"/><circle cx="541.99" cy="826.84" r="10.52" fill="#fff"/><circle cx="287.66" cy="578.92" r="11.46" fill="#fff"/><circle cx="1608.86" cy="545.26" r="11.79" fill="#fff"/><circle cx="1024.39" cy="737.95" r="6.25" transform="translate(-196.53 416.56) rotate(-21.02)" fill="#fff" opacity="0.66"/><circle cx="1022.31" cy="842.01" r="6.25" transform="translate(-234 422.73) rotate(-21.02)" fill="#fff" opacity="0.66"/><circle cx="1600.39" cy="890.73" r="7.78" fill="#fff" opacity="0.66"/><circle cx="671.41" cy="629.04" r="6.25" fill="#fff" opacity="0.66"/><circle cx="537.72" cy="756.37" r="6.25" fill="#fff" opacity="0.66"/><circle cx="917.3" cy="528.39" r="6.25" fill="#fff" opacity="0.66"/><circle cx="1775.92" cy="643.61" r="6.25" fill="#fff" opacity="0.66"/><circle cx="1564.2" cy="577.83" r="7.01" fill="#fff" opacity="0.66"/><circle cx="1116.55" cy="957.29" r="6.25" fill="#fff" opacity="0.66"/><circle cx="960.61" cy="812.6" r="6.25" fill="#fff" opacity="0.66"/><circle cx="927.37" cy="987.22" r="6.25" fill="#fff" opacity="0.66"/><circle cx="1125.53" cy="855.13" r="4.42" transform="translate(-231.84 460.64) rotate(-21.02)" fill="#fff" opacity="0.53"/><circle cx="1524.81" cy="972.48" r="5.5" fill="#fff" opacity="0.53"/><circle cx="1420.19" cy="1025.75" r="5.5" fill="#fff" opacity="0.53"/><circle cx="1436.78" cy="748.76" r="5.5" fill="#fff" opacity="0.53"/><circle cx="175.49" cy="650.41" r="4.82" fill="#fff" opacity="0.53"/><circle cx="829.35" cy="653.45" r="4.42" fill="#fff" opacity="0.53"/><path d="M1838.91,517.25c12,19.74-69.24,41.61-43.86,86s63.79,9,80.52,5.63c36.18-7.32,71.37,20.3,74.19-26.24s10.42-73.26,10.42-73.26Z" fill="#f58978"/><path d="M1387,863.5c2.18-7.25,35.19-3.74,73.73,7.84s68,26.85,65.84,34.1" fill="none" stroke="#d8bdba" stroke-miterlimit="10" stroke-width="9.34"/><path d="M1833.87,564c31.79-10.05,71.28-41.2,84.16-51.82l-79.11,5.11c12,19.74-69.24,41.61-43.86,86a57.48,57.48,0,0,0,8.69,11.79l1.07-.57S1795.3,576.16,1833.87,564Z" fill="#f58978" opacity="0.5" style="mix-blend-mode:multiply"/><rect x="-5.01" y="499.01" width="1934.11" height="23.06" fill="#91d7eb"/><ellipse cx="851.07" cy="507.64" rx="18.83" ry="5.13" fill="#fff"/><path d="M833.25,509.3c2.53,2,9.55,3.47,17.82,3.47s15.29-1.45,17.82-3.47c-2.53-2-9.55-3.47-17.82-3.47S835.77,507.28,833.25,509.3Z" fill="#272626"/><path d="M911.87,404.83l36.41,38.49-46.46-4.16v10.05l56.28,8.68a6.86,6.86,0,0,0,7.55-9L942,379.17Z" fill="#f58978"/><path d="M917.4,410.68l16,16.88.54-.15S947,414,960.61,434h0L950,402.69,948.38,401Z" fill="#f58978" opacity="0.5" style="mix-blend-mode:multiply"/><path d="M877.16,269.34a12.11,12.11,0,0,0-20,5c-7.15,22-16.1,61.1-.76,87,22.37,37.77,74.72-2.66,54.92-43.86A170.34,170.34,0,0,0,877.16,269.34Z" fill="#91d7eb"/><path d="M877.16,269.34a12.11,12.11,0,0,0-20,5c-7.15,22-16.1,61.1-.76,87,22.37,37.77,74.72-2.66,54.92-43.86A170.34,170.34,0,0,0,877.16,269.34Z" fill="#91d7eb" opacity="0.51" style="mix-blend-mode:multiply"/><ellipse cx="915.76" cy="357.44" rx="76.82" ry="61.24" transform="translate(-57.34 217.99) rotate(-13.17)" fill="#91d7eb"/><path d="M939,301s26,.47,28-22.28a2.09,2.09,0,0,1,2.4-1.86c3,.45,7.87,2.77,7.18,13.17,0,0,5.37-3.87,4.54-17a2.09,2.09,0,0,1,3-2.07c3.82,1.83,9.31,6.42,6.61,17.22,0,0,3.49.37,6.55-7.27a2.09,2.09,0,0,1,3.8-.22c6,11.76,18.82,48.2-17.71,99.56-44.86,63.07-79.49-47.63-79.49-47.63Z" fill="#91d7eb"/><path d="M973.93,393.33l-12.44-14.16.38,5.81a17.58,17.58,0,0,1-14.65,18.48c-60.06,10-74.87-26.54-74.87-26.54l-14.44,25.43c17.1,14.82,44.08,21.19,71.79,14.7A92.36,92.36,0,0,0,963,402h0l0,0q2-1.49,4-3.08Z" fill="#91d7eb" opacity="0.51" style="mix-blend-mode:multiply"/><path d="M950.09,371.58S945.49,344.5,972.47,345l34.46,75.47-17,90H979.22l15.41-85.65Z" fill="#f58978"/><path d="M951.5,335.54A195.57,195.57,0,0,0,953.06,298a32.59,32.59,0,0,1-3.41,1.27,89.87,89.87,0,0,0-47.84-1.48,96.56,96.56,0,0,0-12.25,3.74c-8.74,12.5-15.21,26.47-15.94,41C871.18,391.27,944.56,385.92,951.5,335.54Z" fill="#91d7eb" opacity="0.51" style="mix-blend-mode:multiply"/><path d="M938.32,265.72a13.47,13.47,0,0,0-22.32-5c-18.08,18.33-46.47,52.73-44.13,86.13,3.42,48.71,75.63,34.61,76.48-16.24A189.48,189.48,0,0,0,938.32,265.72Z" fill="#91d7eb"/><path d="M948.36,324.19a188.36,188.36,0,0,0-10-58.47,13.47,13.47,0,0,0-22.32-5,228.75,228.75,0,0,0-20.79,24.12C895.28,284.83,937.55,276.93,948.36,324.19Z" fill="#a6deed"/><path d="M844.95,380.48s5.37-14.64,19.52-11.22,8.3,18.55,8.3,18.55L855.2,546.9,844,559.1Z" fill="#f58978"/><g clip-path="url(#clip-path-3)"><circle cx="866.38" cy="563.72" r="23.23" transform="translate(-71.39 998.45) rotate(-57.92)" fill="#f58978"/><g clip-path="url(#clip-path-4)"><ellipse cx="864.99" cy="561.35" rx="9.12" ry="7.83" transform="translate(-163.36 637.62) rotate(-37.22)" fill="#fff"/><ellipse cx="865.11" cy="564.49" rx="8.36" ry="7.18" transform="translate(-165.24 638.33) rotate(-37.22)" fill="#272626"/><polyline points="863.52 557.08 862.86 560.96 858.75 557.09" fill="#fff"/></g><path d="M863.89,553.22s8.88,4.11,8.71,11.48,5.58-3.81,5.58-3.81l-3.55-8.1-5.12-5.37-5,3.4Z" fill="#f58978"/></g><path d="M879.44,566.52s16.59-3.42,18.86,1.53-10.94,10.54-12.77,10.54S879.44,566.52,879.44,566.52Z" fill="#fce4d3"/><path d="M882,577.78s11.63-2.71,13.26-6.83-16.21-1-16.21-1Z" fill="#fcc59a"/><path d="M872.35,577.93a13.75,13.75,0,0,1,7.09-11.42s20.7,29.25,17.92,31.85S873.82,580.56,872.35,577.93Z" fill="#fce4d3"/><path d="M836.11,579.16a1.53,1.53,0,0,1-1.52,2.15c-1-.12-2.38-.79-3.94-2.79a5.18,5.18,0,0,1-.16-6.66,1.45,1.45,0,0,1,2.51.25Z" fill="#878787"/><path d="M851.68,593.64a1.15,1.15,0,0,0-1.89.58,4.67,4.67,0,0,0,1.08,3.46,3.89,3.89,0,0,0,4.72,1.66,1.09,1.09,0,0,0,.4-1.85Z" fill="#878787"/><path d="M860.17,578.93l-10.33-.25-8.95-8.83a2.3,2.3,0,0,1,.65-3.72l4.28-2Z" fill="#f58b78"/><path d="M844.07,550.91s-1-22.83,13.17-22.49l1.44-12.4-14.42.67Z" fill="#f58978" opacity="0.5" style="mix-blend-mode:multiply"/><g opacity="0.5" style="mix-blend-mode:multiply"><path d="M953.87,352.82l-1.74,2.86c-3.48,7.39-2,15.89-2,15.89l44.54,53.27S948,364.72,953.87,352.82Z" fill="#f58978"/><path d="M954.17,352.33a3.62,3.62,0,0,0-.3.49l.3-.5Z" fill="#f58978"/></g><polygon points="906.41 445.61 958.1 457.88 906.41 449.92 906.41 445.61" fill="#f58978" opacity="0.5" style="mix-blend-mode:multiply"/><path d="M901.81,439.15S889,443.07,889,458.85s9.24,24.56,9.24,24.56S916,469,907.66,447.35Z" fill="#f58978"/><polygon points="984.82 479.37 987.83 497.96 982.31 491.47 984.82 479.37" fill="#f58978" opacity="0.5" style="mix-blend-mode:multiply"/><path d="M989.91,510.49h-42s3.19-21.8,23.75-21.8S989.91,510.49,989.91,510.49Z" fill="#f58978"/><path d="M832.24,507.64c0,2.83,8.43,5.13,18.83,5.13s18.83-2.3,18.83-5.13v14.43H832.24Z" fill="#91d7eb"/><rect x="-5.01" y="518.23" width="1934.11" height="3.84" fill="#fff"/><circle cx="1378.38" cy="828.97" r="11.67" fill="#fff"/><circle cx="1778.12" cy="558.07" r="9.38" fill="#fff"/><circle cx="743.98" cy="818.27" r="9.38" fill="#fff"/><circle cx="996.33" cy="1072.9" r="9.38" fill="#fff"/><circle cx="1410.95" cy="804.66" r="9.24" fill="#91d7eb"/><circle cx="1660.12" cy="709.95" r="8.33" fill="#91d7eb"/><circle cx="1503.02" cy="767.24" r="18.47" fill="#91d7eb" opacity="0.68"/><circle cx="1698.27" cy="905.45" r="20.51" fill="#91d7eb" opacity="0.68"/><circle cx="783.04" cy="607.64" r="7.43" fill="#91d7eb"/><circle cx="639.68" cy="695.87" r="7.43" fill="#91d7eb"/><circle cx="491.54" cy="705.34" r="7.43" fill="#91d7eb"/><circle cx="1774.4" cy="812.6" r="3.72" fill="#91d7eb"/><circle cx="819.22" cy="895.18" r="3.72" fill="#91d7eb"/><circle cx="1384.13" cy="792.45" r="5.75" fill="#91d7eb" opacity="0.51"/><circle cx="1228.69" cy="957.29" r="4.63" fill="#91d7eb" opacity="0.51"/><circle cx="1034.06" cy="1018.24" r="4.63" fill="#91d7eb" opacity="0.51"/><circle cx="900.54" cy="676.73" r="4.63" fill="#91d7eb" opacity="0.51"/><circle cx="1084.42" cy="729.71" r="4.63" transform="translate(-189.58 437.54) rotate(-21.02)" fill="#91d7eb" opacity="0.51"/><circle cx="1331.65" cy="937.75" r="4.63" fill="#91d7eb" opacity="0.51"/><circle cx="795.75" cy="705.34" r="4.63" fill="#91d7eb" opacity="0.51"/><path d="M-78.74,894c23.48,67.21,79.31-2,115.21,1.09S147.4,942,176.86,866.37c33.31-85.5-106.24-98.63-141.15-56S-106.11,815.69-78.74,894Z" fill="#91d7eb"/><path d="M576,1001.28c20.71-13,45.87,11.31,30.16,25.76S559,1012,576,1001.28Z" fill="#fff"/><path d="M711.05,651.74c20.71-13,55.39,8.86,39.68,23.31S694.09,662.43,711.05,651.74Z" fill="none" stroke="#fff" stroke-miterlimit="10" stroke-width="2.82" opacity="0.29"/><path d="M188.88,767.92c20.71-13,55.39,8.86,39.68,23.31S171.91,778.61,188.88,767.92Z" fill="none" stroke="#f58978" stroke-miterlimit="10" stroke-width="2.74" opacity="0.39"/><path d="M1911.63,889.35c20.71-13,55.39,8.86,39.68,23.31S1894.67,900,1911.63,889.35Z" fill="none" stroke="#fff" stroke-miterlimit="10" stroke-width="2.82" opacity="0.29"/><path d="M1798.35,774.11c10.35-6.52,22.93,5.65,15.08,12.88S1789.87,779.45,1798.35,774.11Z" fill="#fff"/><path d="M170.44,684.61c8,25.44-24.7,45.15-35.54,24.58S163.92,663.76,170.44,684.61Z" fill="#f58978"/><path d="M486,985.73c.5-29.81,62.34-40.27,85.17-36.74s31.51,4.67,33.72,13.83S485.68,1002,486,985.73Z" fill="#91d7eb"/><path d="M450.58,1102.1c-12.42-27.1,38.84-63.24,61-69.91s30.44-9.4,36.39-2.09S457.34,1116.85,450.58,1102.1Z" fill="#f58978"/><path d="M266.95,574.19c34.78,7.4,18.7,42.37,33.77,62.48s39,38.88,18.44,72.67-106,62.86-119.9,7.24,52.77-34.31,52.09-60-35.72,4.66-40.67-43.27S244.68,569.45,266.95,574.19Z" fill="#f58978"/><path d="M1207.45,1168.52c-34.33,9.27-36-29.18-58.54-40.2s-52.48-16.8-49.55-56.26,65.66-104.27,103.41-61.12-31.32,54.6-19,77.18,29.66-20.44,55.93,20S1229.43,1162.59,1207.45,1168.52Z" fill="#f58978"/><path d="M624.93,988.59c.43-10.95,11.89-7.9,17.2-13.53s9.76-13.89,21.1-9.41,24.64,28.89,8.48,36-10.44,14.91-18.22,16.47.55-18.54-13.75-14.53S624.66,995.59,624.93,988.59Z" fill="#f58978"/><path d="M416.83,1041.79c10.94-.62,9,11.08,15.1,15.84s14.76,8.4,11.37,20.11-26.41,27.28-35.06,11.87-15.84-9-18.13-16.56,18.51-1.22,13.15-15.07S409.82,1042.19,416.83,1041.79Z" fill="#f58978"/><path d="M1504.93,1033.5h0a8.93,8.93,0,0,0,14.89,2.4h0a8.93,8.93,0,0,0-6.68-14.85h0A8.93,8.93,0,0,0,1504.93,1033.5Z" fill="#fff" opacity="0.61"/><circle cx="1628.37" cy="974.05" r="13.09" fill="#fff"/><circle cx="1457.68" cy="881.91" r="31.65" transform="translate(-229.93 648.35) rotate(-23.29)" fill="#f58b78"/><path d="M1440.05,908.19a31.65,31.65,0,0,1,44.49-43,31.65,31.65,0,1,0-44.49,43Z" fill="#f58978" opacity="0.5" style="mix-blend-mode:multiply"/><ellipse cx="1894.95" cy="678.15" rx="9.3" ry="12.72" transform="translate(915.48 2436.38) rotate(-80.57)" fill="#f58b78"/><ellipse cx="775.61" cy="936.55" rx="9.3" ry="12.72" transform="translate(-275.36 1548.22) rotate(-80.57)" fill="#f58b78"/><ellipse cx="383.41" cy="905.45" rx="9.3" ry="12.72" transform="matrix(0.16, -0.99, 0.99, 0.16, -572.63, 1135.32)" fill="#f58b78"/><path d="M1883.59,681.37a6.91,6.91,0,0,1,.09-1.4c.84-5.07,7.14-8.24,14.07-7.09,4.42.73,8,3.05,9.84,5.95-.18-4.56-4.82-8.81-11.11-9.86-6.93-1.15-13.23,2-14.07,7.09A7.58,7.58,0,0,0,1883.59,681.37Z" fill="#f58978" opacity="0.5" style="mix-blend-mode:multiply"/><path d="M1526.55,905.45c-2.18,7.25-35.19,3.74-73.73-7.84s-68-26.85-65.84-34.1" fill="none" stroke="#d8bdba" stroke-miterlimit="10" stroke-width="9.34"/><ellipse cx="1843.52" cy="652.05" rx="12.72" ry="13.99" transform="translate(-108.42 535.12) rotate(-16.05)" fill="#f58b78"/><path d="M1835.35,662.3a15.49,15.49,0,0,1-.72-2c-2.14-7.43,1.6-15,8.36-17a12.47,12.47,0,0,1,12,3.2c-2.75-6.22-9.25-9.72-15.38-8-6.75,1.94-10.49,9.54-8.36,17A15,15,0,0,0,1835.35,662.3Z" fill="#f58978" opacity="0.5" style="mix-blend-mode:multiply"/><circle cx="1848.65" cy="655.78" r="3.72" transform="translate(728.8 2266.22) rotate(-74.72)" fill="#f58978" opacity="0.5" style="mix-blend-mode:multiply"/><ellipse cx="1043.98" cy="605.07" rx="12.72" ry="13.99" transform="translate(-126.6 312.23) rotate(-16.05)" fill="#f58b78"/><path d="M1035.81,615.32a15.49,15.49,0,0,1-.72-2c-2.14-7.43,1.6-15,8.36-17a12.47,12.47,0,0,1,12,3.2c-2.75-6.22-9.25-9.72-15.38-8-6.75,1.94-10.49,9.54-8.36,17A15,15,0,0,0,1035.81,615.32Z" fill="#f58978" opacity="0.5" style="mix-blend-mode:multiply"/><circle cx="1049.11" cy="608.81" r="3.72" transform="translate(185.31 1460.35) rotate(-74.72)" fill="#f58978" opacity="0.5" style="mix-blend-mode:multiply"/><path d="M182,842c-40.46-38.36-111-.7-155,.31-31.9.73-79.14,20-110.09,29.23.38-48.45,87.92-23.48,118.88-61.24C67,772.16,182.27,778.74,182,842Z" fill="#91d7eb" opacity="0.51" style="mix-blend-mode:multiply"/><path d="M571.12,949c-36.8.63-52.64,23.48-59.36,40.69-15.1,1.62-25.89.89-25.81-4C486.46,955.92,548.29,945.46,571.12,949Z" fill="#91d7eb" opacity="0.51" style="mix-blend-mode:multiply"/><circle cx="1838.47" cy="1024" r="127.01" fill="#fff" opacity="0.63"/><g opacity="0.5" style="mix-blend-mode:multiply"><path d="M242.63,668.47c-17.43,8-54,5.51-43.37,48.1,2.65,10.59,7.89,18.1,14.78,23.1C214,739.5,203.53,693.63,242.63,668.47Z" fill="#f58978"/><path d="M290,598.88l.52-1.45c-2.49-10.79-7.77-19.88-23.6-23.25-22.26-4.74-61.23-8.84-56.27,39.09,1,10,3.4,16.63,6.48,21,0,0,3.36-36.76,33.25-42.32S290,598.88,290,598.88Z" fill="#f58978"/></g><circle cx="1759.85" cy="998.94" r="20.58" fill="#272626" opacity="0.24"/><ellipse cx="1833.41" cy="998.7" rx="12.16" ry="11.21" transform="translate(687.27 2743.73) rotate(-85.28)" fill="#272626" opacity="0.24"/><ellipse cx="1838.47" cy="937.88" rx="12.74" ry="10.09" transform="translate(-214.26 723.69) rotate(-21.07)" fill="#272626" opacity="0.24"/><polygon points="709.57 764.83 658.36 773.04 662.63 768.53 713.83 760.32 709.57 764.83" fill="#fff"/><polygon points="685.31 800.19 672.06 798.13 684.87 742.02 698.31 742.43 685.31 800.19" fill="#fff"/><ellipse cx="678.75" cy="798.87" rx="6.8" ry="6.02" transform="translate(-117.93 117.55) rotate(-9.11)" fill="#fff"/><ellipse cx="691.56" cy="742.03" rx="6.8" ry="6.02" transform="translate(-108.77 118.86) rotate(-9.11)" fill="#fff"/><polygon points="748.19 765.88 696.99 774.09 698.99 755.45 750.19 747.24 748.19 765.88" fill="#91d7eb"/><polygon points="671.71 778.14 620.51 786.35 622.5 767.72 673.71 759.51 671.71 778.14" fill="#91d7eb"/><polygon points="745.9 761.58 694.69 769.79 696.69 751.16 747.89 742.95 745.9 761.58" fill="#91d7eb" opacity="0.51" style="mix-blend-mode:multiply"/><polygon points="669.41 773.85 618.21 782.06 620.21 763.42 671.41 755.21 669.41 773.85" fill="#91d7eb" opacity="0.51" style="mix-blend-mode:multiply"/><circle cx="791.38" cy="751.07" r="7.43" transform="translate(-206.03 1193.29) rotate(-67.41)" fill="#f58978"/><circle cx="1340.26" cy="892.45" r="4.42" transform="translate(67.59 1878.91) rotate(-71.44)" fill="#fff" opacity="0.53"/><circle cx="1303.19" cy="822.46" r="4.63" transform="translate(108.68 1796.05) rotate(-71.44)" fill="#91d7eb" opacity="0.51"/><circle cx="1326.97" cy="782.94" r="4.63" transform="translate(162.35 1791.65) rotate(-71.44)" fill="#91d7eb" opacity="0.51"/><circle cx="948.38" cy="573.64" r="4.63" transform="translate(102.69 1290.08) rotate(-71.44)" fill="#91d7eb" opacity="0.51"/><circle cx="1285.01" cy="764.24" r="7.43" transform="translate(-136.01 1229) rotate(-48.85)" fill="#f58978"/><circle cx="469.29" cy="876.39" r="7.43" transform="translate(-499.44 653.11) rotate(-48.85)" fill="#f58978"/><circle cx="790.47" cy="862.86" r="3.72" transform="translate(-309.81 1261.31) rotate(-67.41)" fill="#f58978" opacity="0.59"/><circle cx="986.95" cy="1018.24" r="3.72" transform="translate(-332.25 1538.42) rotate(-67.41)" fill="#f58978" opacity="0.59"/><circle cx="862.41" cy="921.59" r="10.55" transform="translate(-319.72 1363.91) rotate(-67.41)" fill="#f58978" opacity="0.82"/><circle cx="750.73" cy="571.53" r="3.72" transform="translate(-65.3 1045.18) rotate(-67.41)" fill="#f58978" opacity="0.59"/><circle cx="269.53" cy="822.57" r="6.25" transform="translate(-331.04 199.21) rotate(-25.79)" fill="#fff" opacity="0.66"/><circle cx="308.6" cy="912.06" r="7.43" transform="translate(-366.08 225.12) rotate(-25.79)" fill="#91d7eb"/><path d="M237.57,866.43c20.75,13,16.12,53.73-3.72,45.87S220.57,855.8,237.57,866.43Z" fill="none" stroke="#fff" stroke-miterlimit="10" stroke-width="2.82" opacity="0.29"/><path d="M917,801.68c20.75,13,16.12,53.73-3.72,45.87S900,791.06,917,801.68Z" fill="none" stroke="#fff" stroke-miterlimit="10" stroke-width="2.82" opacity="0.29"/><circle cx="327.06" cy="867.26" r="3.72" transform="translate(-47.97 19.64) rotate(-3.2)" fill="#f58978" opacity="0.59"/><circle cx="983.48" cy="604.82" r="3.72" transform="translate(-32.28 55.93) rotate(-3.2)" fill="#f58978" opacity="0.59"/><circle cx="587.38" cy="896.88" r="3.72" transform="translate(-49.22 34.24) rotate(-3.2)" fill="#f58978" opacity="0.59"/><circle cx="860.17" cy="874.82" r="3.72" transform="translate(-277.93 1333.03) rotate(-67.41)" fill="#f58978" opacity="0.59"/><circle cx="1102.2" cy="700.71" r="3.72" transform="translate(27.42 1442.8) rotate(-67.07)" fill="#91d7eb"/><circle cx="294.53" cy="769.79" r="3.72" transform="translate(-464.08 447.57) rotate(-46.05)" fill="#91d7eb"/><circle cx="644.28" cy="876.39" r="3.72" transform="translate(-433.82 731.97) rotate(-46.05)" fill="#91d7eb"/><circle cx="604.87" cy="654.35" r="3.72" transform="translate(-286.02 635.67) rotate(-46.05)" fill="#91d7eb"/><ellipse cx="548.19" cy="685.23" rx="9.3" ry="12.72" transform="translate(-300.53 462.23) rotate(-36.62)" fill="#f58b78"/><circle cx="1049.04" cy="687.25" r="3.72" transform="translate(-180.96 931.99) rotate(-44.48)" fill="#f58978" opacity="0.59"/><circle cx="587.38" cy="732.44" r="3.72" transform="translate(-243.06 294.43) rotate(-23.46)" fill="#f58978" opacity="0.59"/><circle cx="96.74" cy="742.51" r="6.25" fill="#fff" opacity="0.66"/><circle cx="949.8" cy="634.31" r="4.42" fill="#fff" opacity="0.53"/><circle cx="110.59" cy="683.52" r="4.63" fill="#91d7eb" opacity="0.51"/><circle cx="58.26" cy="701.31" r="3.72" transform="translate(-274.41 81.18) rotate(-23.46)" fill="#f58978" opacity="0.59"/><circle cx="1110.42" cy="639.1" r="10.55" transform="translate(-129.63 961.2) rotate(-44.48)" fill="#f58978" opacity="0.82"/><circle cx="1090" cy="604.82" r="3.72" transform="translate(-111.46 937.07) rotate(-44.48)" fill="#f58978" opacity="0.59"/><circle cx="1385.2" cy="957.74" r="4.62" transform="translate(-31.1 1868.87) rotate(-67.41)" fill="#f58978" opacity="0.59"/><circle cx="713.21" cy="710.67" r="3.72" transform="translate(-216.88 1096.24) rotate(-67.41)" fill="#f58978" opacity="0.59"/><circle cx="1234.06" cy="754.66" r="7.43" transform="translate(-209.67 844.38) rotate(-35)" fill="#91d7eb"/><circle cx="1152.29" cy="621.38" r="4.63" transform="translate(-148.01 773.36) rotate(-35)" fill="#91d7eb" opacity="0.51"/><path d="M1157,721.5c-22.56-9.48-24.51-50.45-3.67-45.87S1175.45,729.27,1157,721.5Z" fill="none" stroke="#fff" stroke-miterlimit="10" stroke-width="2.82" opacity="0.29"/><circle cx="1220.01" cy="806.98" r="3.72" transform="translate(233.08 1886.62) rotate(-81.05)" fill="#91d7eb"/><ellipse cx="1277.83" cy="835.7" rx="12.72" ry="9.3" transform="translate(81.85 1784.85) rotate(-71.62)" fill="#f58b78"/><circle cx="958.91" cy="689.62" r="4.63" transform="translate(-221.98 713.81) rotate(-36.9)" fill="#91d7eb" opacity="0.51"/><circle cx="1005.09" cy="652.05" r="4.63" transform="translate(-190.17 734.01) rotate(-36.9)" fill="#91d7eb" opacity="0.51"/><circle cx="856.36" cy="720.11" r="7.43" transform="translate(-151.42 234.01) rotate(-14.31)" fill="#f58978"/><circle cx="943.88" cy="769.74" r="7.43" transform="translate(-6.16 7.61) rotate(-0.46)" fill="#91d7eb"/><ellipse cx="1022.31" cy="798.87" rx="12.72" ry="9.3" transform="translate(-274.95 777.89) rotate(-37.08)" fill="#f58b78"/><circle cx="1328.14" cy="1006.09" r="6.25" transform="translate(-130.89 1810.71) rotate(-66.02)" fill="#fff" opacity="0.66"/><circle cx="1279.76" cy="972.12" r="6.25" transform="translate(-254.09 1451.82) rotate(-54.59)" fill="#fff" opacity="0.66"/><circle cx="1268.56" cy="1016.74" r="7.43" transform="translate(-291.54 1474.01) rotate(-55.05)" fill="#91d7eb"/><ellipse cx="1358.64" cy="1036.59" rx="12.72" ry="9.3" transform="translate(144.7 2239.41) rotate(-82.08)" fill="#f58b78"/><ellipse cx="1013.64" cy="564.13" rx="12.72" ry="9.3" transform="translate(-101.85 245.72) rotate(-13.17)" fill="#91d7eb"/><circle cx="1204" cy="685.93" r="3.72" transform="translate(-119.33 274.93) rotate(-12.42)" fill="#f58978" opacity="0.59"/><circle cx="1592.61" cy="833.85" r="4.62" transform="translate(211.04 1984.06) rotate(-67.41)" fill="#f58978" opacity="0.59"/><g opacity="0.51" style="mix-blend-mode:multiply"><path d="M115.89,574.73c-7.41-14.5-13.75-26.62-4.53-37.42-12.91,10.2-77.84,16.45-49.92,16.53,29.56.08,53.34,22.3,53.34,22.3Z" fill="#91d7eb"/><path d="M113.08,535.47c.7-.67,1.35-1.33,2-2A4.28,4.28,0,0,0,113.08,535.47Z" fill="#91d7eb"/></g><path d="M637.52,984.33c7.46-1.43,13.48-.29,19.5-8a88.27,88.27,0,0,1,8.66-9.38,15.37,15.37,0,0,0-2.45-1.26c-11.34-4.49-15.78,3.78-21.1,9.41s-16.78,2.58-17.2,13.53a28.72,28.72,0,0,0,.82,9S630.07,985.76,637.52,984.33Z" fill="#f58978" opacity="0.5" style="mix-blend-mode:multiply"/><circle cx="1564.2" cy="675.09" r="53.58" fill="#91d7eb"/><path d="M1520.65,690.69a53.58,53.58,0,0,1,93-36.3,53.58,53.58,0,1,0-88.84,57A53.41,53.41,0,0,1,1520.65,690.69Z" fill="#91d7eb" opacity="0.51" style="mix-blend-mode:multiply"/><circle cx="1560.73" cy="696.85" r="9.61" transform="translate(831.19 2242.57) rotate(-88.79)" fill="#91d7eb" opacity="0.51" style="mix-blend-mode:multiply"/><circle cx="1578.05" cy="663.49" r="7.37" transform="translate(-20.21 1276.68) rotate(-43.79)" fill="#91d7eb" opacity="0.51" style="mix-blend-mode:multiply"/><g opacity="0.66"><circle cx="381.7" cy="786.35" r="53.58" transform="translate(-79.77 44) rotate(-5.97)" fill="#91d7eb"/><path d="M340,806.4a53.58,53.58,0,0,1,88.71-45.78,53.58,53.58,0,1,0-82.43,65.93A53.41,53.41,0,0,1,340,806.4Z" fill="#91d7eb" opacity="0.51" style="mix-blend-mode:multiply"/><circle cx="373.8" cy="799.41" r="9.61" transform="matrix(1, -0.08, 0.08, 1, -65.16, 33.84)" fill="#91d7eb" opacity="0.51" style="mix-blend-mode:multiply"/><circle cx="411.99" cy="784.88" r="7.37" transform="translate(-453.31 592.48) rotate(-49.77)" fill="#91d7eb" opacity="0.51" style="mix-blend-mode:multiply"/></g><path d="M1887.3,875.05c0,4.86-62.34-5.14-67.2-5.14a8.8,8.8,0,1,1,0-17.6C1825,852.32,1887.3,870.19,1887.3,875.05Z" fill="#91d7eb" opacity="0.51"/><circle cx="1820.1" cy="861.12" r="8.8" fill="#91d7eb"/><path d="M1628.76,573.64s60.73,11.23,88.63,52.83" fill="#91d7eb"/><path d="M778.41,1043.48s1.92-62.75,57.83-71.64" fill="#fff" opacity="0.66"/><path d="M674.91,908.61s49.44-10.11,49.44,30.84" fill="#f58978"/><circle cx="1439.11" cy="624.32" r="44.42" fill="none" stroke="#92d7eb" stroke-miterlimit="10" stroke-width="4.47" opacity="0.39"/><circle cx="1302.01" cy="611.22" r="4.96" fill="#91d7eb"/><ellipse cx="1360.22" cy="556.01" rx="12.41" ry="16.98" transform="matrix(0.16, -0.99, 0.99, 0.16, 588.86, 1806.75)" fill="#f58b78"/><circle cx="1340.39" cy="654.35" r="4.96" transform="translate(221.42 1640.62) rotate(-67.41)" fill="#f58978" opacity="0.59"/><circle cx="1244.36" cy="575.97" r="14.09" transform="translate(234.65 1503.69) rotate(-67.41)" fill="#f58978" opacity="0.82"/><circle cx="1366.71" cy="719.92" r="14.09" transform="translate(177.09 1705.31) rotate(-67.41)" fill="#fff"/><circle cx="1247.37" cy="638.39" r="4.96" transform="translate(178.87 1544.9) rotate(-67.41)" fill="#f58978" opacity="0.59"/><path d="M1494.63,593.29s-66,13.5-66-41.16" fill="#f58978"/><circle cx="41.79" cy="1076.19" r="33.28" transform="translate(-1027.09 944.24) rotate(-80.74)" fill="none" stroke="#92d7eb" stroke-miterlimit="10" stroke-width="3.35" opacity="0.39"/><path d="M328.43,592.18c-3.65-18,8.71-33.71,26.73-37.35S390,561,393.67,579a33.28,33.28,0,1,1-65.24,13.2Z" fill="none" stroke="#92d7eb" stroke-miterlimit="10" stroke-width="3.35" opacity="0.39"/><circle cx="75.99" cy="993.01" r="3.72" transform="translate(-895.94 775.77) rotate(-73.02)" fill="#91d7eb"/><ellipse cx="123.93" cy="1045" rx="12.72" ry="9.3" transform="translate(-867.15 691.27) rotate(-63.59)" fill="#f58b78"/><circle cx="113.86" cy="959.41" r="10.55" transform="translate(-698.31 436.14) rotate(-50.44)" fill="#f58978" opacity="0.82"/><circle cx="48.39" cy="754.68" r="10.55" transform="translate(-564.24 311.33) rotate(-50.44)" fill="#f58978" opacity="0.82"/><circle cx="68.48" cy="947.9" r="3.72" transform="translate(-705.92 396.98) rotate(-50.44)" fill="#f58978" opacity="0.59"/><path d="M205.91,1041.77s-59.46-20.15-51.64-76.22" fill="#91d7eb"/><path d="M68.48,1022.85s-50.42,2-43.83-38.39" fill="#91d7eb"/><path d="M1691.64,577.13s31.78,8.11,46.38,38.15" fill="#91d7eb" opacity="0.51"/><circle cx="845.43" cy="810.7" r="35.37" fill="#f58978"/><path d="M816.68,821a35.37,35.37,0,0,1,61.39-24,35.37,35.37,0,1,0-58.65,37.62A35.26,35.26,0,0,1,816.68,821Z" fill="#f58978" opacity="0.5" style="mix-blend-mode:multiply"/><circle cx="857.99" cy="824.36" r="6.34" transform="translate(15.76 1664.82) rotate(-88.79)" fill="#f58978" opacity="0.5" style="mix-blend-mode:multiply"/><circle cx="854.57" cy="803.04" r="4.87" transform="translate(-318.05 814.8) rotate(-43.79)" fill="#f58978" opacity="0.5" style="mix-blend-mode:multiply"/><circle cx="835.24" cy="821.89" r="3.09" transform="translate(-336.47 806.67) rotate(-43.79)" fill="#f58978" opacity="0.5" style="mix-blend-mode:multiply"/><path d="M758.85,1097.56c13.54-5,83,27.13,204.82-74.47,101.49-84.65,82.58-209,169.22-239.34,85.6-30,44.33,183.09,175.8,143.22,206.18-62.54,205.76,211.17,212,271.42,12.55,120.73-79.95,74.72-78.16,137.51s-73.77,158.58-120.87,133c-45.41-24.64-12.1-131.16-66.61-144.05s-73.24,138.89-160.77,124.26S972.12,1373,933.6,1396.91l-1.15.73a129.94,129.94,0,0,1-169.88-24.56L704,1304.41c-58.82-68.91-60.1-160.32,24.94-191.55Z" fill="none" stroke="#f58978" stroke-miterlimit="10" stroke-width="8.72"/><path d="M1520.71,1198.38c12.55,120.73-79.95,74.72-78.16,137.51s-73.77,158.58-120.87,133c-45.41-24.64-12.1-131.16-66.61-144.05s-73.24,138.89-160.77,124.26S972.12,1373,933.6,1396.91l-1.15.73a129.94,129.94,0,0,1-169.88-24.56L704,1304.41c-58.82-68.91-60.1-160.32,24.94-191.55l30-15.31c13.54-5,83,27.13,204.82-74.47,101.49-84.65,82.58-209,169.22-239.34" fill="none" stroke="#f58978" stroke-miterlimit="10" stroke-width="8.72"/><path d="M836.3,1038.05c0,4.86,62.34-5.14,67.2-5.14a8.8,8.8,0,1,0,0-17.6C898.64,1015.32,836.3,1033.19,836.3,1038.05Z" fill="#f58978" opacity="0.59"/><circle cx="903.5" cy="1024.12" r="8.8" fill="#f58978"/><path d="M1176.8,996.84c-35.24-3.23-75.11,43.94-77.43,75.22-2.61,35.09,20.75,43.55,41.83,52.74h0C1113.27,1031.42,1171.83,999.37,1176.8,996.84Z" fill="#f58978" opacity="0.5" style="mix-blend-mode:multiply"/></g></g></svg>